<mxfile host="app.diagrams.net" modified="2023-05-19T14:22:06.942Z" agent="Mozilla/5.0 (X11; Linux x86_64) AppleWebKit/537.36 (KHTML, like Gecko) Chrome/112.0.0.0 Safari/537.36" version="21.3.2" etag="4mbgE0Pf29w0zSJLXOKP" type="github">
  <diagram name="Страница 1" id="2MGMtZlh2h4HA8_L39vP">
    <mxGraphModel>
      <root>
        <mxCell id="0" />
        <mxCell id="1" parent="0" />
      </root>
    </mxGraphModel>
  </diagram>
</mxfile>
